<svg width="123" height="123" viewBox="0 0 123 123" fill="none" xmlns="http://www.w3.org/2000/svg">
<circle cx="61.4999" cy="61.4999" r="61.5" fill="url(#paint0_linear_6_2)"/>
<path d="M50.0495 32.8968C50.1479 34.7745 49.5949 36.5128 48.3904 38.1119C47.186 39.711 45.6774 41.1774 43.8645 42.511C42.0984 43.7927 40.2257 44.9314 38.2465 45.9269C36.2672 46.9225 34.552 47.7556 33.1007 48.4262C33.1551 49.4639 33.1861 50.5275 33.1936 51.6172C33.2012 52.7068 33.184 53.7977 33.1422 54.89C34.6819 54.0165 36.4219 53.1821 38.3621 52.3868C40.3023 51.5914 42.1618 51.1472 43.9406 51.0539C45.3735 50.9788 46.5502 51.2144 47.4707 51.7608C48.4406 52.3045 48.9644 53.3175 49.0421 54.7999C49.1275 56.4305 48.611 57.9192 47.4924 59.266C46.4233 60.6103 45.0993 61.8192 43.5206 62.8929C41.9418 63.9666 40.2811 64.8959 38.5385 65.6809C36.796 66.4659 35.3174 67.0884 34.1029 67.5484C34.1883 69.179 34.2491 70.8109 34.2851 72.444C34.3186 74.0278 34.3273 75.6128 34.3114 77.1992C34.3034 77.9924 34.2563 78.9858 34.1703 80.1794C34.1336 81.3705 33.9474 82.5446 33.6117 83.7018C33.3227 84.8069 32.8544 85.7976 32.2067 86.6739C31.5564 87.5007 30.6877 87.9426 29.6006 87.9996C28.563 88.054 27.6477 87.6065 26.8547 86.6571C26.0592 85.6583 25.3482 84.3826 24.7218 82.8299C24.1448 81.2746 23.6329 79.5425 23.186 77.6336C22.786 75.6727 22.4379 73.7586 22.1419 71.8913C21.8952 70.0214 21.7058 68.2972 21.5735 66.7187C21.4906 65.1375 21.4272 63.9269 21.3832 63.0869C21.3495 62.4446 21.3003 61.5058 21.2356 60.2705C21.2177 58.9832 21.1686 57.5737 21.0883 56.0419C21.0574 54.5076 21.0227 52.8991 20.984 51.2165C20.9948 49.5314 21.0108 47.945 21.0319 46.4575C21.0505 44.9206 21.1041 43.58 21.1927 42.4358C21.3282 41.2395 21.5053 40.3632 21.7239 39.8067C22.2104 38.6912 23.4394 37.5615 25.4109 36.4177C27.4292 35.2219 29.6776 34.1627 32.1562 33.24C34.6322 32.268 37.0431 31.4727 39.3889 30.8543C41.7816 30.1839 43.6203 29.815 44.905 29.7477C45.4979 29.7166 46.0687 29.7363 46.6174 29.8066C47.2129 29.8249 47.7642 29.9447 48.2713 30.1658C48.7784 30.387 49.1918 30.7122 49.5115 31.1413C49.8313 31.5705 50.0106 32.1557 50.0495 32.8968ZM64.2788 32.0048C64.4353 34.9901 64.461 38.87 64.3561 43.6447C64.2991 48.3662 64.4112 53.4086 64.6923 58.7719C64.9733 64.1352 65.2586 68.6104 65.5481 72.1975C65.8855 75.7313 66.8943 78.0377 68.5744 79.1166C69.461 79.5775 69.9322 80.3392 69.9879 81.4018C70.0436 82.4643 69.4375 83.4854 68.1697 84.4651C65.8286 86.2621 63.1401 87.2401 60.1042 87.3992C58.0297 87.508 56.6944 86.7154 56.0983 85.0216C55.9094 84.3212 55.7897 83.4904 55.7394 82.529C55.6863 81.5171 55.652 80.3773 55.6363 79.1097C55.6712 77.8395 55.6862 76.1898 55.6813 74.1606C55.6594 65.0292 55.5105 57.8325 55.2347 52.5704C54.9563 47.2576 54.712 44.0487 54.5019 42.9435C54.2041 41.1326 53.504 39.8755 52.4017 39.1723L51.8505 38.8206C51.1689 38.3997 50.8082 37.8098 50.7684 37.0508C50.6809 35.3811 52.0141 33.7131 54.768 32.0467C57.5725 30.3776 59.7843 29.5006 61.4034 29.4158C63.2249 29.3203 64.1834 30.1833 64.2788 32.0048ZM71.807 74.5331L71.3744 61.9225C71.2498 59.5444 70.7495 57.7441 69.8737 56.5216C69.0484 55.2965 68.6226 54.4309 68.596 53.9249C68.5191 52.4576 69.7857 50.9706 72.3958 49.464C75.0564 47.9546 77.0951 47.1629 78.5118 47.0886C80.4345 46.9878 81.4609 48.1771 81.5908 50.6564C81.6863 52.4779 81.6738 54.6602 81.5534 57.2033C81.4303 59.6958 81.4245 62.0046 81.5359 64.1297C81.7745 68.6835 82.9311 70.906 85.0056 70.7973L85.3091 70.7813C87.839 70.6488 88.913 66.9395 88.5312 59.6535C88.4225 57.579 88.0274 55.8493 87.346 54.4644C86.7523 53.7852 86.4382 53.1167 86.4037 52.4589C86.3268 50.9916 87.4496 49.6644 89.772 48.4772C92.0943 47.29 94.141 46.65 95.9119 46.5572C97.6828 46.4644 98.6133 47.2782 98.7035 48.9985C98.7989 50.82 98.7679 52.6481 98.6104 54.4829C98.3618 58.4533 98.3781 63.1202 98.6592 68.4835L99.3841 77.9586C99.6731 83.4737 99.5217 87.8449 98.9298 91.0723C98.3885 94.2971 96.9152 97.1648 94.51 99.6754C92.158 102.234 89.2111 103.606 85.6693 103.792C83.5948 103.9 81.7428 103.414 80.1133 102.333C78.4838 101.251 77.6133 99.6477 77.502 97.5226C77.4383 96.3083 77.7168 95.3297 78.3375 94.5868C79.0087 93.8414 79.6959 93.3995 80.3989 93.2611L81.3776 93.0576C84.3096 92.8532 86.3737 91.5781 87.5699 89.2323C88.7661 86.8865 89.2687 83.8921 89.0778 80.2491C89.0327 79.3889 88.8837 78.9655 88.6307 78.9787L87.9636 79.3181C86.2718 82.8568 83.6803 84.7177 80.1891 84.9007C74.9776 85.1738 72.1835 81.7179 71.807 74.5331Z" fill="white" fill-opacity="0.98"/>
<defs>
<linearGradient id="paint0_linear_6_2" x1="91.4999" y1="-8.70102e-05" x2="20.4858" y2="123" gradientUnits="userSpaceOnUse">
<stop stop-color="#276CEA"/>
<stop offset="1" stop-color="#002B7B"/>
</linearGradient>
</defs>
</svg>
